<svg width="25" height="23" viewBox="0 0 25 23" fill="none" xmlns="http://www.w3.org/2000/svg">
<path fill-rule="evenodd" clip-rule="evenodd" d="M14.2857 6.03585C14.2857 8.99451 11.8872 11.393 8.92857 11.393C5.96991 11.393 3.57143 8.99451 3.57143 6.03585C3.57143 3.07719 5.96991 0.678711 8.92857 0.678711C11.8872 0.678711 14.2857 3.07719 14.2857 6.03585ZM8.92857 13.1787C3.99746 13.1787 0 17.1762 0 22.1072C0 22.6003 0.399746 23.0001 0.892857 23.0001H16.9643C17.4574 23.0001 17.8571 22.6003 17.8571 22.1072C17.8571 17.1762 13.8597 13.1787 8.92857 13.1787ZM24.1073 23.0001H19.96C20.0443 22.7172 20.0895 22.4174 20.0895 22.1072C20.0895 18.4624 18.3423 15.2257 15.6399 13.1889C15.7829 13.1821 15.9268 13.1787 16.0716 13.1787C21.0027 13.1787 25.0002 17.1762 25.0002 22.1072C25.0002 22.6003 24.6004 23.0001 24.1073 23.0001ZM16.0716 11.393C15.5328 11.393 15.0126 11.3134 14.522 11.1655C15.7615 9.81469 16.518 8.01362 16.518 6.03585C16.518 4.05809 15.7615 2.25701 14.522 0.906229C15.0126 0.758247 15.5328 0.678711 16.0716 0.678711C19.0302 0.678711 21.4288 3.07719 21.4288 6.03585C21.4288 8.99451 19.0302 11.393 16.0716 11.393Z" fill="#1E1E1E"/>
</svg>
