<svg width="24" height="20" viewBox="0 0 24 20" fill="none" xmlns="http://www.w3.org/2000/svg">
<path fill-rule="evenodd" clip-rule="evenodd" d="M0 2.71425C0 1.29409 1.15127 0.142822 2.57143 0.142822H21.4286C22.8487 0.142822 24 1.29409 24 2.71425V3.30045L12.6573 10.8636C12.4973 10.9665 12.2651 11.0399 12 11.0399C11.7349 11.0399 11.5027 10.9665 11.3427 10.8636L0 3.30047V2.71425ZM0 5.87599V17.2857C0 18.7058 1.15127 19.8571 2.57143 19.8571H21.4286C22.8487 19.8571 24 18.7058 24 17.2857V5.87598L13.8302 12.657C13.2908 13.0081 12.6431 13.1828 12 13.1828C11.3569 13.1828 10.7092 13.0081 10.1698 12.657L10.1598 12.6505L0 5.87599Z" fill="white"/>
</svg>
